<?xml version="1.0" standalone="no"?>
<svg
  width="600"
  height="600"
  viewBox="0 0 600 600"
  xmlns="http://www.w3.org/2000/svg"
>
  <g transform="translate(300,300)">
    <path d="M139.2,-218.5C175,-193.6,194.8,-145.8,203.8,-100.6C212.7,-55.3,210.8,-12.7,206.6,31.1C202.5,74.8,196.1,119.6,174.5,159.5C152.9,199.5,116,234.5,74.5,240.7C33.1,246.9,-13.1,224.2,-55.7,204.8C-98.4,185.4,-137.6,169.3,-175.9,142.7C-214.2,116,-251.6,78.8,-259.2,36.3C-266.7,-6.1,-244.3,-53.7,-218.4,-95.3C-192.5,-136.8,-163,-172.3,-126,-196.6C-89,-220.9,-44.5,-233.9,3.6,-239.5C51.7,-245.1,103.4,-243.3,139.2,-218.5Z" fill="#FFB4BC" />
  </g>
</svg>
  